<?xml version="1.0" standalone="no"?>
<!DOCTYPE svg PUBLIC "-//W3C//DTD SVG 20010904//EN"
 "http://www.w3.org/TR/2001/REC-SVG-20010904/DTD/svg10.dtd">
<svg version="1.0" xmlns="http://www.w3.org/2000/svg"
 width="800.000000pt" height="800.000000pt" viewBox="0 0 800.000000 800.000000"
 preserveAspectRatio="xMidYMid meet">
<metadata>
Created by potrace 1.11, written by Peter Selinger 2001-2013
</metadata>
<g transform="translate(0.000000,800.000000) scale(0.100000,-0.100000)"
fill="#000000" stroke="none">
<path d="M3714 6979 c-844 -46 -1657 -427 -2207 -1034 -458 -506 -717 -1115
-756 -1780 -56 -924 362 -1838 1114 -2436 486 -387 1077 -624 1720 -690 142
-14 498 -14 640 0 921 95 1730 541 2260 1246 571 761 731 1735 431 2624 -278
820 -917 1486 -1754 1830 -341 140 -699 219 -1087 241 -99 5 -189 9 -200 8
-11 0 -83 -4 -161 -9z"/>
</g>
</svg>
